<?xml version="1.0" encoding="UTF-8" standalone="no"?>
<svg
   xmlns:dc="http://purl.org/dc/elements/1.1/"
   xmlns:cc="http://creativecommons.org/ns#"
   xmlns:rdf="http://www.w3.org/1999/02/22-rdf-syntax-ns#"
   xmlns:svg="http://www.w3.org/2000/svg"
   xmlns="http://www.w3.org/2000/svg"
   xmlns:sodipodi="http://sodipodi.sourceforge.net/DTD/sodipodi-0.dtd"
   xmlns:inkscape="http://www.inkscape.org/namespaces/inkscape"
   version="1.1"
   x="0px"
   y="0px"
   viewBox="0 0 1024 1280"
   style="enable-background:new 0 0 1024 1024;"
   xml:space="preserve"
   id="svg16"
   sodipodi:docname="noun_color_1658230.svg"
   inkscape:version="0.92.3 (2405546, 2018-03-11)"><metadata
     id="metadata22"><rdf:RDF><cc:Work
         rdf:about=""><dc:format>image/svg+xml</dc:format><dc:type
           rdf:resource="http://purl.org/dc/dcmitype/StillImage" /></cc:Work></rdf:RDF></metadata><defs
     id="defs20" /><sodipodi:namedview
     pagecolor="#ffffff"
     bordercolor="#666666"
     borderopacity="1"
     objecttolerance="10"
     gridtolerance="10"
     guidetolerance="10"
     inkscape:pageopacity="0"
     inkscape:pageshadow="2"
     inkscape:window-width="1853"
     inkscape:window-height="1025"
     id="namedview18"
     showgrid="false"
     inkscape:zoom="0.26074563"
     inkscape:cx="444.42615"
     inkscape:cy="134.52925"
     inkscape:window-x="67"
     inkscape:window-y="27"
     inkscape:window-maximized="1"
     inkscape:current-layer="svg16" /><g
     id="g6"
     style="stroke:#909090;stroke-opacity:1;fill:#909090;fill-opacity:1"
     inkscape:export-xdpi="96"
     inkscape:export-ydpi="96"><g
       id="g4"
       style="stroke:#909090;stroke-opacity:1;fill:#909090;fill-opacity:1"><path
         d="M799,570.6c0,14.8-1,29.7-3,44.4c0.5-3.5,1-7.1,1.4-10.6c-3.9,28.5-11.6,56.4-22.7,82.9    c1.3-3.2,2.7-6.4,4-9.6c-11,25.9-25.3,50.2-42.4,72.5c2.1-2.7,4.2-5.4,6.3-8.1c-17.1,22.1-37,41.9-59,59c2.7-2.1,5.4-4.2,8.1-6.3    c-22.3,17.2-46.6,31.4-72.5,42.4c3.2-1.3,6.4-2.7,9.6-4c-26.5,11.2-54.4,18.8-82.9,22.7c3.5-0.5,7.1-1,10.6-1.4    c-29.4,3.9-59.3,3.9-88.7,0c3.5,0.5,7.1,1,10.6,1.4c-28.5-3.9-56.4-11.6-82.9-22.7c3.2,1.3,6.4,2.7,9.6,4    c-25.9-11-50.2-25.3-72.5-42.4c2.7,2.1,5.4,4.2,8.1,6.3c-22.1-17.1-41.9-37-59-59c2.1,2.7,4.2,5.4,6.3,8.1    c-17.2-22.3-31.4-46.6-42.4-72.5c1.3,3.2,2.7,6.4,4,9.6c-11.2-26.5-18.8-54.4-22.7-82.9c0.5,3.5,1,7.1,1.4,10.6    c-3.9-29.3-3.9-58.9-0.1-88.2c-0.5,3.5-1,7.1-1.4,10.6c3.9-28.7,11.6-56.8,22.8-83.5c-1.3,3.2-2.7,6.4-4,9.6    c11.1-26.1,25.5-50.6,42.8-73c-2.1,2.7-4.2,5.4-6.3,8.1c15.3-19.6,32.6-37.5,50.2-55c21-21,42.5-41.3,64.3-61.4    c39-36,78.7-71.2,118.8-106c8.4-7.3,16.8-14.5,25.3-21.7c-18.9,0-37.7,0-56.6,0c23.8,20.3,47.4,40.9,70.8,61.6    c44.2,39.1,88,78.7,130,120.1c20.1,19.9,40.2,40.1,57.6,62.4c-2.1-2.7-4.2-5.4-6.3-8.1c17.3,22.4,31.7,46.9,42.8,73    c-1.3-3.2-2.7-6.4-4-9.6c11.2,26.7,18.9,54.8,22.8,83.5c-0.5-3.5-1-7.1-1.4-10.6C798,541.3,799,555.9,799,570.6    c0.1,20.9,18.4,41,40,40c21.6-1,40.1-17.6,40-40c-0.2-61.8-15.8-123-45.5-177.2c-20.8-37.9-49.3-70.5-79.6-101.1    c-28-28.4-57.2-55.6-86.7-82.5c-27.5-25.1-55.3-49.9-83.4-74.4c-14.2-12.4-28.5-24.9-42.9-37.1c-0.2-0.2-0.4-0.3-0.6-0.5    c-7.9-6.7-17.5-12.2-28.3-11.7c-11.1,0.5-19.8,4.5-28.3,11.7c-17.6,15-35,30.2-52.4,45.4c-36.7,32.2-73,64.7-108.6,98.1    c-32,30-64.8,60.3-92.5,94.4c-12.6,15.4-24.4,31.5-34.5,48.6c-10.1,17.1-18.3,35.1-25.7,53.5c-14.2,35.2-21.7,72.8-24.3,110.6    c-4.3,65.1,10.1,130.7,39.3,188.8c27.7,55.1,70.2,101.8,120.7,136.8c51.9,36,113,56.3,175.6,62.1c64.1,6,128.4-6.8,186.7-33.5    c56.3-25.7,103.7-67,140.6-116.3c18.7-25,32.8-52.2,44.6-81c12.1-29.6,19-60.2,23-91.8c1.8-14.3,2.8-28.6,2.8-43    c0-20.9-18.4-41-40-40C817.3,531.6,799,548.2,799,570.6z"
         id="path2"
         style="stroke:#909090;stroke-opacity:1;fill:#909090;fill-opacity:1" /></g></g><g
     id="g10"
     style="stroke:#909090;stroke-opacity:1;fill:#909090;fill-opacity:1"
     inkscape:export-xdpi="96"
     inkscape:export-ydpi="96"><path
       d="M839,570.6c0,180.6-146.4,327-327,327V126.2c0,0,192.5,163.8,252.5,236.7C811,419.3,839,491.7,839,570.6z"
       id="path8"
       style="stroke:#909090;stroke-opacity:1;fill:#909090;fill-opacity:1" /></g></svg>