<?xml version="1.0" encoding="UTF-8" standalone="no"?>
<svg
   xmlns:dc="http://purl.org/dc/elements/1.1/"
   xmlns:cc="http://creativecommons.org/ns#"
   xmlns:rdf="http://www.w3.org/1999/02/22-rdf-syntax-ns#"
   xmlns:svg="http://www.w3.org/2000/svg"
   xmlns="http://www.w3.org/2000/svg"
   xmlns:sodipodi="http://sodipodi.sourceforge.net/DTD/sodipodi-0.dtd"
   xmlns:inkscape="http://www.inkscape.org/namespaces/inkscape"
   version="1.1"
   x="0px"
   y="0px"
   viewBox="0 0 100 125"
   enable-background="new 0 0 100 100"
   xml:space="preserve"
   id="svg50"
   sodipodi:docname="noun_collar_1098988.svg"
   inkscape:version="0.92.3 (2405546, 2018-03-11)"><metadata
     id="metadata56"><rdf:RDF><cc:Work
         rdf:about=""><dc:format>image/svg+xml</dc:format><dc:type
           rdf:resource="http://purl.org/dc/dcmitype/StillImage" /></cc:Work></rdf:RDF></metadata><defs
     id="defs54" /><sodipodi:namedview
     pagecolor="#ffffff"
     bordercolor="#666666"
     borderopacity="1"
     objecttolerance="10"
     gridtolerance="10"
     guidetolerance="10"
     inkscape:pageopacity="0"
     inkscape:pageshadow="2"
     inkscape:window-width="1853"
     inkscape:window-height="1025"
     id="namedview52"
     showgrid="false"
     inkscape:zoom="1.888"
     inkscape:cx="50"
     inkscape:cy="62.5"
     inkscape:window-x="67"
     inkscape:window-y="27"
     inkscape:window-maximized="1"
     inkscape:current-layer="svg50" /><g
     id="g44"
     style="fill:#909090;fill-opacity:1"><g
       id="g6"
       style="fill:#909090;fill-opacity:1"><g
         id="g4"
         style="fill:#909090;fill-opacity:1"><path
           d="M50,54.118c-7.946,0-15.432-1.388-21.075-3.908c-5.86-2.617-9.088-6.178-9.088-10.03c0-3.85,3.228-7.412,9.088-10.029     c5.643-2.519,13.128-3.907,21.075-3.907c7.947,0,15.432,1.388,21.075,3.907c5.86,2.618,9.088,6.18,9.088,10.029     c0,3.852-3.229,7.414-9.088,10.03C65.432,52.73,57.947,54.118,50,54.118z M50,27.934c-7.714,0-14.954,1.335-20.385,3.761     c-2.59,1.157-4.614,2.493-6.014,3.971c-1.374,1.452-2.071,2.97-2.071,4.513c0,1.544,0.697,3.063,2.071,4.515     c1.4,1.478,3.423,2.814,6.014,3.971C35.046,51.09,42.286,52.426,50,52.426s14.954-1.335,20.385-3.761     c2.59-1.157,4.614-2.493,6.014-3.971c1.375-1.452,2.072-2.97,2.072-4.515c0-1.543-0.698-3.062-2.072-4.513     c-1.4-1.478-3.423-2.814-6.014-3.971C64.954,29.27,57.714,27.934,50,27.934z"
           id="path2"
           style="fill:#909090;fill-opacity:1" /></g></g><g
       id="g12"
       style="fill:#909090;fill-opacity:1"><g
         id="g10"
         style="fill:#909090;fill-opacity:1"><path
           d="M53.856,62.774c-0.445,0-0.818-0.348-0.844-0.797c-0.027-0.466,0.33-0.866,0.796-0.893     c6.988-0.404,13.409-1.924,18.078-4.28c4.502-2.27,6.986-5.119,6.998-8.022l-0.412-8.562c-0.022-0.466,0.337-0.862,0.805-0.885     c0.466-0.02,0.863,0.337,0.885,0.804l0.414,8.583c0.001,0.013,0.001,0.027,0.001,0.041c0,3.582-2.815,6.974-7.928,9.552     c-4.871,2.458-11.527,4.041-18.742,4.458C53.889,62.773,53.872,62.774,53.856,62.774z"
           id="path8"
           style="fill:#909090;fill-opacity:1" /></g></g><g
       id="g18"
       style="fill:#909090;fill-opacity:1"><g
         id="g16"
         style="fill:#909090;fill-opacity:1"><path
           d="M47.92,62.853c-0.009,0-0.018,0-0.026,0c-7.611-0.234-14.698-1.744-19.957-4.25c-5.489-2.616-8.513-6.111-8.513-9.84     c0-0.467,0.379-0.846,0.846-0.846c0.468,0,0.846,0.379,0.846,0.846c0,3.04,2.681,5.993,7.549,8.313     c5.052,2.407,11.899,3.858,19.28,4.087c0.467,0.014,0.834,0.404,0.819,0.871C48.751,62.491,48.375,62.853,47.92,62.853z"
           id="path14"
           style="fill:#909090;fill-opacity:1" /></g></g><g
       id="g24"
       style="fill:#909090;fill-opacity:1"><g
         id="g22"
         style="fill:#909090;fill-opacity:1"><path
           d="M20.271,49.609c-0.014,0-0.027-0.001-0.042-0.001c-0.467-0.022-0.826-0.419-0.804-0.886l0.414-8.583     c0.021-0.467,0.417-0.826,0.885-0.804c0.467,0.022,0.827,0.419,0.805,0.885l-0.414,8.584     C21.094,49.256,20.719,49.609,20.271,49.609z"
           id="path20"
           style="fill:#909090;fill-opacity:1" /></g></g><g
       id="g30"
       style="fill:#909090;fill-opacity:1"><g
         id="g28"
         style="fill:#909090;fill-opacity:1"><path
           d="M26.942,49.111c-0.344,0-0.667-0.211-0.794-0.553c-1.142-3.099-0.922-5.788,0.654-7.994     c4.481-6.27,18.752-6.624,24.681-6.484c4.815,0.113,10.341,0.365,14.978,1.941c5.813,1.977,8.962,5.662,9.359,10.952     c0.035,0.466-0.314,0.872-0.781,0.908c-0.464,0.033-0.872-0.314-0.906-0.781c-0.347-4.615-3.035-7.715-8.217-9.478     c-4.41-1.499-9.783-1.742-14.472-1.852c-4.416-0.103-19.14,0.007-23.265,5.777c-1.248,1.747-1.393,3.848-0.443,6.424     c0.162,0.439-0.063,0.926-0.501,1.088C27.138,49.095,27.039,49.111,26.942,49.111z"
           id="path26"
           style="fill:#909090;fill-opacity:1" /></g></g><g
       id="g36"
       style="fill:#909090;fill-opacity:1"><g
         id="g34"
         style="fill:#909090;fill-opacity:1"><path
           d="M50.626,73.757c-3.657,0-6.634-2.976-6.634-6.634c0-3.657,2.977-6.634,6.634-6.634c3.659,0,6.635,2.977,6.635,6.634     C57.261,70.782,54.285,73.757,50.626,73.757z M50.626,62.182c-2.726,0-4.942,2.217-4.942,4.941c0,2.725,2.216,4.942,4.942,4.942     s4.942-2.217,4.942-4.942C55.568,64.399,53.352,62.182,50.626,62.182z"
           id="path32"
           style="fill:#909090;fill-opacity:1" /></g></g><g
       id="g42"
       style="fill:#909090;fill-opacity:1"><g
         id="g40"
         style="fill:#909090;fill-opacity:1"><path
           d="M50.626,62.182c-0.467,0-0.846-0.379-0.846-0.847v-3.114c0-0.468,0.379-0.847,0.846-0.847     c0.467,0,0.846,0.379,0.846,0.847v3.114C51.472,61.803,51.093,62.182,50.626,62.182z"
           id="path38"
           style="fill:#909090;fill-opacity:1" /></g></g></g></svg>