<?xml version="1.0" encoding="UTF-8" standalone="no"?>
<svg
   xmlns:dc="http://purl.org/dc/elements/1.1/"
   xmlns:cc="http://creativecommons.org/ns#"
   xmlns:rdf="http://www.w3.org/1999/02/22-rdf-syntax-ns#"
   xmlns:svg="http://www.w3.org/2000/svg"
   xmlns="http://www.w3.org/2000/svg"
   xmlns:sodipodi="http://sodipodi.sourceforge.net/DTD/sodipodi-0.dtd"
   xmlns:inkscape="http://www.inkscape.org/namespaces/inkscape"
   version="1.1"
   x="0px"
   y="0px"
   viewBox="0 0 24 30"
   style="enable-background:new 0 0 24 24;"
   xml:space="preserve"
   id="svg8"
   sodipodi:docname="noun_Calendar_1585331.svg"
   inkscape:version="0.92.3 (2405546, 2018-03-11)"><metadata
     id="metadata14"><rdf:RDF><cc:Work
         rdf:about=""><dc:format>image/svg+xml</dc:format><dc:type
           rdf:resource="http://purl.org/dc/dcmitype/StillImage" /></cc:Work></rdf:RDF></metadata><defs
     id="defs12" /><sodipodi:namedview
     pagecolor="#ffffff"
     bordercolor="#666666"
     borderopacity="1"
     objecttolerance="10"
     gridtolerance="10"
     guidetolerance="10"
     inkscape:pageopacity="0"
     inkscape:pageshadow="2"
     inkscape:window-width="1853"
     inkscape:window-height="1025"
     id="namedview10"
     showgrid="false"
     inkscape:zoom="7.8666667"
     inkscape:cx="12"
     inkscape:cy="15"
     inkscape:window-x="67"
     inkscape:window-y="27"
     inkscape:window-maximized="1"
     inkscape:current-layer="svg8" /><path
     d="M19.313,3.563h-1.688V1.875H16.5v1.688h-9V1.875H6.375v1.688H4.688c-1.551,0-2.813,1.262-2.813,2.813v12.938  c0,1.551,1.262,2.813,2.813,2.813h14.625c1.551,0,2.813-1.262,2.813-2.813V9.188V8.063V6.375  C22.125,4.824,20.863,3.563,19.313,3.563z M21,19.313C21,20.243,20.243,21,19.313,21H4.688C3.757,21,3,20.243,3,19.313V9.188h18  V19.313z M21,8.063H3V6.375c0-0.931,0.757-1.688,1.688-1.688h1.688v1.125H7.5V4.688h9v1.125h1.125V4.688h1.688  C20.243,4.688,21,5.444,21,6.375V8.063z"
     id="path2"
     style="fill:#909090;fill-opacity:1" /></svg>